<svg width="1200" height="800" viewBox="0 0 1200 800" fill="none" xmlns="http://www.w3.org/2000/svg">
  <rect width="1200" height="800" rx="48" fill="#F8FAFC"/>
  <rect x="48" y="48" width="1104" height="704" rx="36" fill="#FFFFFF" stroke="#E2E8F0" stroke-width="4"/>
  <path d="M285 260C285 220.235 317.235 188 357 188H843C882.765 188 915 220.235 915 260V540C915 579.765 882.765 612 843 612H357C317.235 612 285 579.765 285 540V260Z" fill="#1E3A8A"/>
  <path d="M381 320H819" stroke="#F59E0B" stroke-width="24" stroke-linecap="round"/>
  <path d="M381 400H719" stroke="white" stroke-width="24" stroke-linecap="round"/>
  <path d="M381 480H621" stroke="#BFDBFE" stroke-width="24" stroke-linecap="round"/>
  <circle cx="770" cy="466" r="74" fill="#F59E0B"/>
  <path d="M737 466L758 487L807 438" stroke="#1E3A8A" stroke-width="20" stroke-linecap="round" stroke-linejoin="round"/>
  <text x="600" y="685" text-anchor="middle" fill="#1E3A8A" font-family="Arial, sans-serif" font-size="48" font-weight="700">
    Clear Cut Marketing
  </text>
</svg>
